<?xml version="1.0" encoding="utf-8"?>
<!-- Generator: Adobe Illustrator 22.1.0, SVG Export Plug-In . SVG Version: 6.00 Build 0)  -->
<svg version="1.1" id="Layer_1" xmlns="http://www.w3.org/2000/svg" xmlns:xlink="http://www.w3.org/1999/xlink" x="0px" y="0px"
	 viewBox="0 0 312.4 89.4" style="enable-background:new 0 0 312.4 89.4;" xml:space="preserve">
<style type="text/css">
	.st0{fill:#ED1B34;}
</style>
<g id="ÉtÉHÅ_x5B_É_x7D_ÉbÉg">
</g>
<g id="ï_x5C_é_xB6_óvëf">
	<g>
		<g>
			<g>
				<g>
					<g>
						<g>
							<g>
								<path d="M240.8,0.9c0,0,0,17,0,16.9h22.6c0,0.1,0-16.9,0-16.9s11.1,0,11.2,0c0,0,0,42.2,0,42.3h-11.2c0,0,0-18.5,0-18.6
									c0,0.1-22.6,0-22.6,0c0,0.1,0,18.6,0,18.6h-11.2c0,0,0.1-42.3,0-42.3C229.6,0.9,240.8,0.9,240.8,0.9z"/>
								<path d="M134.5,0.9c0,0.1,0,7.2,0,7.2h-17.1v35.1h-11.2V8.1H89.1V0.9H134.5z"/>
								<path d="M178.1,43.2c0,0-12.6,0-12.5,0l-3.7-9.1h-21c0,0-3.6,9.1-3.7,9.1h-12.5l19.9-42.3h13.7L178.1,43.2z M151.4,8.1
									l-7.7,19.2h15.6L151.4,8.1"/>
								<rect x="283.5" y="0.9" width="11.2" height="42.3"/>
								<path d="M31.2,0.9c0,0,0,17,0,16.9h22.6c0,0.1,0-16.9,0-16.9s11.1,0,11.2,0c0,0,0,42.2,0,42.3H53.8c0,0,0-18.5,0-18.6
									c0,0.1-22.6,0-22.6,0c0,0.1,0,18.6,0,18.6H20c0,0,0.1-42.3,0-42.3C20,0.9,31.2,0.9,31.2,0.9z"/>
								<rect x="73.9" y="0.9" width="11.2" height="42.3"/>
								<path d="M177.7,31.5c-1-2.8-1.5-5.8-1.5-9c0-4.4,0.8-8.7,2.9-12.3c2.2-3.7,5.5-6.5,9.6-8c3.9-1.4,8-2.2,12.4-2.2
									c5,0,9.8,1.1,14.1,3c4,1.7,7.1,5.4,8,9.8c0.2,0.9,0.3,1.8,0.4,2.7h-11.7c0-1.1-0.2-2.2-0.6-3.3c-0.9-2.3-2.8-4.2-5.2-4.9
									c-1.6-0.5-3.2-0.7-4.9-0.7c-1.9,0-3.8,0.3-5.5,1c-2.9,1-5.1,3.3-6.1,6.2c-1,2.8-1.5,5.8-1.5,8.9c0,2.6,0.4,5.1,1.1,7.4
									c0.8,3.1,3.2,5.6,6.1,6.7c1.9,0.7,3.9,1.1,6,1.1c1.8,0,3.5-0.3,5.2-0.8c2.2-0.7,4-2.3,4.9-4.4c0.6-1.4,0.9-2.9,0.9-4.5h11.8
									c-0.1,1.4-0.3,2.7-0.6,4c-1,4.2-3.9,7.7-7.8,9.3c-4.4,1.9-9.3,2.9-14.4,2.9c-4,0-7.8-0.6-11.4-1.7
									C184.3,40.8,179.5,36.8,177.7,31.5z"/>
							</g>
						</g>
					</g>
				</g>
			</g>
		</g>
		<g>
			<path d="M10,55L0,55.9v1.5h0.3c4,0.5,4,0.5,4,3.4v20.9h6V55H10z"/>
			<path d="M31.2,62.9c-3.7,0-5.9,2.5-7,4c0-1.4,0-4.1,0-4.1l-0.4,0.1l-8.1,1.3v1.4h0.4c2.6,0.1,3.1,0.6,3.1,3v13.1h5v-9.6
				c0-2.6,2.4-5.9,5-5.9c2.4,0,2.5,2,2.5,5.3v10.2h5V68.6C36.8,64.9,34.8,62.9,31.2,62.9z"/>
			<path d="M50.9,70.2c-2-1-3.7-1.8-3.7-3.2c0-1.6,1.9-1.7,2.7-1.7c2.1,0,3.9,1.1,4.7,1.6l0.8,0.5v-0.6v-3.1l-0.7-0.2
				c-0.9-0.2-2.6-0.6-4.6-0.6c-4.7,0-7.6,2-7.6,5.4c0,3.1,3,4.5,5.5,5.8c2,1,3.9,1.9,3.9,3.4c0,1.4-1.2,2.2-3.4,2.2
				c-2.4,0-4.3-1.2-5.5-1.9l-0.5-0.3v3.9l0.4,0.1c1,0.2,2.9,0.7,5.5,0.7c5.1,0,8.1-2.1,8.1-5.6C56.7,73,53.6,71.5,50.9,70.2z"/>
			<path d="M73.1,62.9c-1.9,0-3.7,0.9-5.3,2.6c0-0.9,0-2.7,0-2.7l-0.5,0.1l-8.1,1.3v1.4h0.3c2.5,0.1,3,0.6,3,3v20.8h5
				c0,0,0-7.9,0-9.5c0.9,1.1,2.4,2.2,5.2,2.2c5.3,0,8.1-3.4,8.1-9.9C81,66.3,78.1,62.9,73.1,62.9z M71.6,65.7c3.4,0,3.8,3.7,3.8,6.6
				c0,4.8-1.2,7.1-3.8,7.1c-3.3,0-4-3.1-4-5.6v-1.6C67.7,70.2,68.1,65.7,71.6,65.7z"/>
			<g>
				<path d="M84.5,64.2v1.4h0.3c2.5,0.1,3,0.6,3,3v13.1h5V62.8l-0.4,0.1L84.5,64.2z"/>
				<path d="M90.4,60.6c1.7,0,3.2-1.2,3.2-2.8c0-1.5-1.4-2.7-3.1-2.7s-3.1,1.2-3.1,2.7C87.3,59.4,88.7,60.6,90.4,60.6z"/>
			</g>
			<path d="M114,67.1v-3.9h-0.3c-0.8-0.1-1.7-0.2-2.4-0.2c-2.9,0-4.4,2.1-5.2,3.7c0-1.5,0-3.8,0-3.8l-0.4,0l-8,1.3v1.4H98
				c2.5,0.1,3.1,0.6,3.1,3v13.1h5v-9.4c0-1.6,0.5-5.3,5.3-5.3c0.6,0,1.2,0.2,1.8,0.3l0.8,0.2V67.1z"/>
			<path d="M133.9,70.5c0-5.1-2.8-7.6-8.4-7.6c-6.3,0-9.4,3-9.4,9c0,6.4,4.1,10.2,11,10.2c3,0,5.3-0.8,6.2-1l0.3-0.1v-2.4l-0.5,0.2
				c-0.8,0.3-2.3,0.6-3.9,0.6c-5.4,0-7.4-4.5-7.5-8.5c0.7,0,12.3,0,12.3,0v-0.4H133.9z M125.4,64.9c2.7,0,3.4,2,3.5,3.7
				c-0.6,0-6.6,0-7.3,0C121.7,67.3,122.6,64.9,125.4,64.9z"/>
		</g>
		<g>
			<path d="M179.9,62.9c-3.7,0-5.8,2.3-6.9,4c0-2,0-12.6,0-12.6l-0.4,0.1l-8,1v1.4h0.4c2.5,0.1,3,0.7,3,3.1v21.8h5v-9.4
				c0-3.4,2.6-6.1,4.8-6.1c2.8,0,2.8,2.1,2.8,4v11.5h5V69.6C185.6,67.6,185.6,62.9,179.9,62.9z"/>
			<path d="M208.3,70.5c0-5.1-2.8-7.6-8.4-7.6c-6.3,0-9.5,3-9.5,9c0,6.4,4.1,10.2,11,10.2c3,0,5.3-0.8,6.2-1l0.3-0.1v-2.4l-0.5,0.2
				c-0.8,0.3-2.3,0.6-3.9,0.6c-5.4,0-7.4-4.5-7.5-8.5c0.7,0,12.3,0,12.3,0L208.3,70.5L208.3,70.5z M199.7,64.9c2.7,0,3.4,2,3.5,3.7
				c-0.6,0-6.6,0-7.3,0C196.1,67.3,196.9,64.9,199.7,64.9z"/>
			<path d="M151.6,57.6c0,0,0,5.2,0,5.7c-0.6,0-3.4,0-3.4,0v2.2c0,0,2.8,0,3.4,0c0,0.7,0,11.3,0,11.3c0,4.9,3.1,5.3,6.9,5.3
				c0.9,0,1.9-0.1,3-0.3h0.3v-2.3l-0.4,0.1c-0.4,0.1-0.9,0.1-1.5,0.1c-3,0-3.2-0.9-3.2-3.5c0,0,0-10,0-10.7c0.6,0,5.7,0,5.7,0v-2.2
				c0,0-5,0-5.7,0c0-0.6,0-5.7,0-5.7H151.6z"/>
		</g>
		<path d="M250.9,55.4h-5.1c0,0,0,18.1,0,20c-1-1.6-13.2-20-13.2-20h-11.7v1.5l1,0.2c3.1,0.5,3.3,0.6,3.3,3.6v21.1h5.4
			c0,0,0-19,0-20.9c1.1,1.6,13.8,20.9,13.8,20.9h6.7V55.4H250.9z"/>
		<path d="M273.8,70.5c0-5.1-2.8-7.6-8.4-7.6c-6.3,0-9.4,3-9.4,9c0,6.4,4.1,10.2,11,10.2c3,0,5.3-0.7,6.2-1l0.3-0.1v-2.4l-0.5,0.2
			c-0.8,0.3-2.3,0.6-4,0.6c-5.4,0-7.4-4.5-7.5-8.5c0.7,0,12.3,0,12.3,0V70.5z M265.3,64.9c2.7,0,3.4,1.9,3.5,3.7c-0.7,0-6.6,0-7.3,0
			C261.6,67.4,262.5,64.9,265.3,64.9z"/>
		<path d="M301.6,57.6c0,0,0,5.2,0,5.7c-0.6,0-3.4,0-3.4,0v2.2c0,0,2.8,0,3.4,0c0,0.7,0,11.3,0,11.3c0,4.9,3.1,5.3,6.9,5.3
			c0.9,0,1.9-0.1,3-0.3h0.3v-2.3l-0.4,0.1c-0.4,0.1-0.9,0.1-1.5,0.1c-3,0-3.2-0.9-3.2-3.5c0,0,0-10,0-10.7c0.6,0,5.7,0,5.7,0v-2.2
			c0,0-5,0-5.7,0c0-0.6,0-5.7,0-5.7H301.6z"/>
		<path d="M291.5,69.3l5.2-6h-5.3l-4.9,5.7l-4.3-5.7h-7.7v1.5h0.3c2.6,0.2,3.2,0.6,4.8,2.8l3.2,4.2l-5.2,6h5.3l2.3-2.7l5,6.6h6
			l-9.5-12.4H291.5z"/>
		<polygon class="st0" points="301.6,57.6 296.2,57.6 302.7,50.2 308,50.2 		"/>
	</g>
</g>
</svg>
